REM DIRINDEX 1\2,1\3,1\4
REM DIRNAME cjc151,folder01,folder02,folder03
TITLE ""
FILE "051 051_TOEFL_3900.mp3" MP3
  TRACK 01 AUDIO
    TITLE "2:cjc151_2189"
    INDEX 01 00:00:00
  TRACK 02 AUDIO
    TITLE "0:"
    INDEX 01 00:01:17
  TRACK 03 AUDIO
    TITLE "3:cjc151_2190"
    INDEX 01 00:02:71
  TRACK 04 AUDIO
    TITLE "0:"
    INDEX 01 00:07:19
  TRACK 05 AUDIO
    TITLE "2:cjc151_2191"
    INDEX 01 00:08:73
  TRACK 06 AUDIO
    TITLE "0:"
    INDEX 01 00:09:69
  TRACK 07 AUDIO
    TITLE "3:cjc151_2192"
    INDEX 01 00:11:42
  TRACK 08 AUDIO
    TITLE "0:"
    INDEX 01 00:14:66
  TRACK 09 AUDIO
    TITLE "2:cjc151_2193"
    INDEX 01 00:16:48
  TRACK 10 AUDIO
    TITLE "0:"
    INDEX 01 00:17:63
  TRACK 11 AUDIO
    TITLE "3:cjc151_2194"
    INDEX 01 00:19:36
  TRACK 12 AUDIO
    TITLE "0:"
    INDEX 01 00:22:62
  TRACK 13 AUDIO
    TITLE "2:cjc151_2195"
    INDEX 01 00:24:45
  TRACK 14 AUDIO
    TITLE "0:"
    INDEX 01 00:25:31
  TRACK 15 AUDIO
    TITLE "3:cjc151_2196"
    INDEX 01 00:27:30
  TRACK 16 AUDIO
    TITLE "0:"
    INDEX 01 00:30:54
  TRACK 17 AUDIO
    TITLE "2:cjc151_2197"
    INDEX 01 00:32:35
  TRACK 18 AUDIO
    TITLE "0:"
    INDEX 01 00:33:50
  TRACK 19 AUDIO
    TITLE "3:cjc151_2198"
    INDEX 01 00:35:23
  TRACK 20 AUDIO
    TITLE "0:"
    INDEX 01 00:39:72
  TRACK 21 AUDIO
    TITLE "2:cjc151_2199"
    INDEX 01 00:41:49
  TRACK 22 AUDIO
    TITLE "0:"
    INDEX 01 00:42:53
  TRACK 23 AUDIO
    TITLE "3:cjc151_2200"
    INDEX 01 00:44:28
  TRACK 24 AUDIO
    TITLE "0:"
    INDEX 01 00:48:08
  TRACK 25 AUDIO
    TITLE "2:cjc151_2201"
    INDEX 01 00:49:63
  TRACK 26 AUDIO
    TITLE "0:"
    INDEX 01 00:50:58
  TRACK 27 AUDIO
    TITLE "3:cjc151_2202"
    INDEX 01 00:52:32
  TRACK 28 AUDIO
    TITLE "0:"
    INDEX 01 00:56:57
  TRACK 29 AUDIO
    TITLE "2:cjc151_2203"
    INDEX 01 00:58:36
  TRACK 30 AUDIO
    TITLE "0:"
    INDEX 01 00:59:28
  TRACK 31 AUDIO
    TITLE "3:cjc151_2204"
    INDEX 01 01:01:05
  TRACK 32 AUDIO
    TITLE "0:"
    INDEX 01 01:05:44
  TRACK 33 AUDIO
    TITLE "2:cjc151_2205"
    INDEX 01 01:07:19
  TRACK 34 AUDIO
    TITLE "0:"
    INDEX 01 01:08:35
  TRACK 35 AUDIO
    TITLE "3:cjc151_2206"
    INDEX 01 01:10:12
  TRACK 36 AUDIO
    TITLE "0:"
    INDEX 01 01:14:29
  TRACK 37 AUDIO
    TITLE "2:cjc151_2207"
    INDEX 01 01:16:11
  TRACK 38 AUDIO
    TITLE "0:"
    INDEX 01 01:17:28
  TRACK 39 AUDIO
    TITLE "3:cjc151_2208"
    INDEX 01 01:19:07
  TRACK 40 AUDIO
    TITLE "0:"
    INDEX 01 01:23:28
  TRACK 41 AUDIO
    TITLE "2:cjc151_2209"
    INDEX 01 01:25:08
  TRACK 42 AUDIO
    TITLE "0:"
    INDEX 01 01:26:03
  TRACK 43 AUDIO
    TITLE "3:cjc151_2210"
    INDEX 01 01:27:55
  TRACK 44 AUDIO
    TITLE "0:"
    INDEX 01 01:31:00
  TRACK 45 AUDIO
    TITLE "2:cjc151_2211"
    INDEX 01 01:32:51
  TRACK 46 AUDIO
    TITLE "0:"
    INDEX 01 01:34:01
  TRACK 47 AUDIO
    TITLE "3:cjc151_2212"
    INDEX 01 01:35:57
  TRACK 48 AUDIO
    TITLE "0:"
    INDEX 01 01:39:35
  TRACK 49 AUDIO
    TITLE "2:cjc151_2213"
    INDEX 01 01:41:14
  TRACK 50 AUDIO
    TITLE "0:"
    INDEX 01 01:42:18
  TRACK 51 AUDIO
    TITLE "3:cjc151_2214"
    INDEX 01 01:43:72
  TRACK 52 AUDIO
    TITLE "0:"
    INDEX 01 01:48:20
  TRACK 53 AUDIO
    TITLE "2:cjc151_2215"
    INDEX 01 01:50:00
  TRACK 54 AUDIO
    TITLE "0:"
    INDEX 01 01:51:05
  TRACK 55 AUDIO
    TITLE "3:cjc151_2216"
    INDEX 01 01:52:55
  TRACK 56 AUDIO
    TITLE "0:"
    INDEX 01 01:56:55
  TRACK 57 AUDIO
    TITLE "2:cjc151_2217"
    INDEX 01 01:58:30
  TRACK 58 AUDIO
    TITLE "0:"
    INDEX 01 01:59:26
  TRACK 59 AUDIO
    TITLE "3:cjc151_2218"
    INDEX 01 02:01:03
  TRACK 60 AUDIO
    TITLE "0:"
    INDEX 01 02:04:12
  TRACK 61 AUDIO
    TITLE "2:cjc151_2219"
    INDEX 01 02:05:64
  TRACK 62 AUDIO
    TITLE "0:"
    INDEX 01 02:07:08
  TRACK 63 AUDIO
    TITLE "3:cjc151_2220"
    INDEX 01 02:08:56
  TRACK 64 AUDIO
    TITLE "0:"
    INDEX 01 02:13:42
  TRACK 65 AUDIO
    TITLE "2:cjc151_2221"
    INDEX 01 02:15:21
  TRACK 66 AUDIO
    TITLE "0:"
    INDEX 01 02:16:38
  TRACK 67 AUDIO
    TITLE "3:cjc151_2222"
    INDEX 01 02:18:18
  TRACK 68 AUDIO
    TITLE "0:"
    INDEX 01 02:23:46
  TRACK 69 AUDIO
    TITLE "2:cjc151_2223"
    INDEX 01 02:25:25
  TRACK 70 AUDIO
    TITLE "0:"
    INDEX 01 02:26:46
  TRACK 71 AUDIO
    TITLE "3:cjc151_2224"
    INDEX 01 02:28:20
  TRACK 72 AUDIO
    TITLE "0:"
    INDEX 01 02:31:69
  TRACK 73 AUDIO
    TITLE "2:cjc151_2225"
    INDEX 01 02:33:45
  TRACK 74 AUDIO
    TITLE "0:"
    INDEX 01 02:34:50
  TRACK 75 AUDIO
    TITLE "3:cjc151_2226"
    INDEX 01 02:36:27
  TRACK 76 AUDIO
    TITLE "0:"
    INDEX 01 02:39:39
  TRACK 77 AUDIO
    TITLE "2:cjc151_2227"
    INDEX 01 02:41:19
  TRACK 78 AUDIO
    TITLE "0:"
    INDEX 01 02:42:34
  TRACK 79 AUDIO
    TITLE "3:cjc151_2228"
    INDEX 01 02:44:11
  TRACK 80 AUDIO
    TITLE "0:"
    INDEX 01 02:47:33
  TRACK 81 AUDIO
    TITLE "2:cjc151_2229"
    INDEX 01 02:49:12
  TRACK 82 AUDIO
    TITLE "0:"
    INDEX 01 02:50:16
  TRACK 83 AUDIO
    TITLE "3:cjc151_2230"
    INDEX 01 02:51:70
  TRACK 84 AUDIO
    TITLE "0:"
    INDEX 01 02:54:11
  TRACK 85 AUDIO
    TITLE "2:cjc151_2231"
    INDEX 01 02:55:74
  TRACK 86 AUDIO
    TITLE "0:"
    INDEX 01 02:57:12
  TRACK 87 AUDIO
    TITLE "3:cjc151_2232"
    INDEX 01 02:58:66
  TRACK 88 AUDIO
    TITLE "0:"
    INDEX 01 03:02:27
